<svg width="32" height="32" viewBox="0 0 32 32" fill="none" xmlns="http://www.w3.org/2000/svg">
<path fill-rule="evenodd" clip-rule="evenodd" d="M22.648 7.29289C23.0385 6.90237 23.6716 6.90237 24.0622 7.29289C24.4527 7.68342 24.4527 8.31658 24.0622 8.70711L17.0918 15.6775L24.0623 22.648C24.4528 23.0385 24.4528 23.6716 24.0623 24.0622C23.6717 24.4527 23.0386 24.4527 22.6481 24.0622L15.6776 17.0917L8.70711 24.0622C8.31658 24.4527 7.68342 24.4527 7.29289 24.0622C6.90237 23.6716 6.90237 23.0385 7.29289 22.648L14.2634 15.6775L7.29298 8.70711C6.90246 8.31658 6.90246 7.68342 7.29298 7.29289C7.68351 6.90237 8.31667 6.90237 8.7072 7.29289L15.6776 14.2633L22.648 7.29289Z" fill="white"/>
<path d="M24.0622 7.29289L24.1682 7.18683L24.1682 7.18683L24.0622 7.29289ZM22.648 7.29289L22.5419 7.18683L22.5419 7.18683L22.648 7.29289ZM24.0622 8.70711L24.1682 8.81317L24.1682 8.81317L24.0622 8.70711ZM17.0918 15.6775L16.9857 15.5714L16.8797 15.6775L16.9857 15.7836L17.0918 15.6775ZM24.0623 22.648L23.9562 22.754L23.9562 22.754L24.0623 22.648ZM24.0623 24.0622L24.1683 24.1682L24.1683 24.1682L24.0623 24.0622ZM22.6481 24.0622L22.542 24.1682L22.542 24.1682L22.6481 24.0622ZM15.6776 17.0917L15.7836 16.9856L15.6776 16.8796L15.5715 16.9856L15.6776 17.0917ZM8.70711 24.0622L8.81317 24.1682L8.81317 24.1682L8.70711 24.0622ZM7.29289 24.0622L7.18683 24.1682L7.18683 24.1682L7.29289 24.0622ZM7.29289 22.648L7.39896 22.754L7.39896 22.754L7.29289 22.648ZM14.2634 15.6775L14.3694 15.7836L14.4755 15.6775L14.3694 15.5714L14.2634 15.6775ZM7.29298 8.70711L7.18692 8.81317L7.18692 8.81317L7.29298 8.70711ZM7.29298 7.29289L7.18692 7.18683L7.18692 7.18683L7.29298 7.29289ZM8.7072 7.29289L8.81326 7.18683L8.81326 7.18683L8.7072 7.29289ZM15.6776 14.2633L15.5715 14.3693L15.6776 14.4754L15.7836 14.3693L15.6776 14.2633ZM24.1682 7.18683C23.7191 6.73772 22.991 6.73772 22.5419 7.18683L22.754 7.39896C23.086 7.06701 23.6242 7.06701 23.9561 7.39896L24.1682 7.18683ZM24.1682 8.81317C24.6173 8.36407 24.6173 7.63593 24.1682 7.18683L23.9561 7.39896C24.2881 7.7309 24.2881 8.2691 23.9561 8.60104L24.1682 8.81317ZM17.1979 15.7836L24.1682 8.81317L23.9561 8.60104L16.9857 15.5714L17.1979 15.7836ZM16.9857 15.7836L23.9562 22.754L24.1683 22.5419L17.1979 15.5714L16.9857 15.7836ZM23.9562 22.754C24.2881 23.086 24.2881 23.6242 23.9562 23.9561L24.1683 24.1682C24.6174 23.7191 24.6174 22.991 24.1683 22.5419L23.9562 22.754ZM23.9562 23.9561C23.6243 24.2881 23.0861 24.2881 22.7541 23.9561L22.542 24.1682C22.9911 24.6173 23.7192 24.6173 24.1683 24.1682L23.9562 23.9561ZM22.7541 23.9561L15.7836 16.9856L15.5715 17.1978L22.542 24.1682L22.7541 23.9561ZM8.81317 24.1682L15.7836 17.1978L15.5715 16.9856L8.60104 23.9561L8.81317 24.1682ZM7.18683 24.1682C7.63593 24.6173 8.36407 24.6173 8.81317 24.1682L8.60104 23.9561C8.26909 24.2881 7.73091 24.2881 7.39896 23.9561L7.18683 24.1682ZM7.18683 22.5419C6.73772 22.991 6.73772 23.7191 7.18683 24.1682L7.39896 23.9561C7.06701 23.6242 7.06701 23.086 7.39896 22.754L7.18683 22.5419ZM14.1573 15.5714L7.18683 22.5419L7.39896 22.754L14.3694 15.7836L14.1573 15.5714ZM14.3694 15.5714L7.39905 8.60104L7.18692 8.81317L14.1573 15.7836L14.3694 15.5714ZM7.39905 8.60104C7.0671 8.2691 7.0671 7.7309 7.39905 7.39896L7.18692 7.18683C6.73782 7.63593 6.73782 8.36407 7.18692 8.81317L7.39905 8.60104ZM7.39905 7.39896C7.731 7.06701 8.26919 7.06701 8.60113 7.39896L8.81326 7.18683C8.36416 6.73772 7.63602 6.73772 7.18692 7.18683L7.39905 7.39896ZM8.60113 7.39896L15.5715 14.3693L15.7836 14.1572L8.81326 7.18683L8.60113 7.39896ZM22.5419 7.18683L15.5715 14.1572L15.7836 14.3693L22.754 7.39896L22.5419 7.18683Z" fill="#0C0C0D"/>
</svg>
