<svg width="19" height="19" viewBox="0 0 19 19" fill="none" xmlns="http://www.w3.org/2000/svg">
<path fill-rule="evenodd" clip-rule="evenodd" d="M16.648 1.29289C17.0385 0.902369 17.6716 0.902369 18.0622 1.29289C18.4527 1.68342 18.4527 2.31658 18.0622 2.70711L11.0918 9.67749L18.0623 16.648C18.4528 17.0385 18.4528 17.6716 18.0623 18.0622C17.6717 18.4527 17.0386 18.4527 16.648 18.0622L9.67758 11.0917L2.70711 18.0622C2.31658 18.4527 1.68342 18.4527 1.29289 18.0622C0.902369 17.6716 0.902368 17.0385 1.29289 16.648L8.26336 9.67749L1.29298 2.70711C0.902459 2.31658 0.902459 1.68342 1.29298 1.29289C1.68351 0.902369 2.31667 0.902369 2.7072 1.29289L9.67758 8.26327L16.648 1.29289Z" fill="white"/>
<path d="M18.0622 1.29289L18.1682 1.18683L18.1682 1.18683L18.0622 1.29289ZM16.648 1.29289L16.754 1.39896L16.754 1.39896L16.648 1.29289ZM18.0622 2.70711L18.1682 2.81317L18.1682 2.81317L18.0622 2.70711ZM11.0918 9.67749L10.9857 9.57142L10.8797 9.67749L10.9857 9.78355L11.0918 9.67749ZM18.0623 16.648L18.1683 16.5419L18.1683 16.5419L18.0623 16.648ZM16.648 18.0622L16.542 18.1682L16.542 18.1682L16.648 18.0622ZM9.67758 11.0917L9.78364 10.9856L9.67758 10.8796L9.57151 10.9856L9.67758 11.0917ZM2.70711 18.0622L2.81317 18.1682L2.81317 18.1682L2.70711 18.0622ZM1.29289 18.0622L1.18683 18.1682L1.18683 18.1682L1.29289 18.0622ZM1.29289 16.648L1.18683 16.5419L1.18683 16.5419L1.29289 16.648ZM8.26336 9.67749L8.36943 9.78355L8.4755 9.67749L8.36943 9.57142L8.26336 9.67749ZM1.29298 2.70711L1.18692 2.81317L1.18692 2.81317L1.29298 2.70711ZM1.29298 1.29289L1.18692 1.18683L1.18692 1.18683L1.29298 1.29289ZM2.7072 1.29289L2.81326 1.18683L2.81326 1.18683L2.7072 1.29289ZM9.67758 8.26327L9.57151 8.36934L9.67758 8.47541L9.78364 8.36934L9.67758 8.26327ZM18.1682 1.18683C17.7191 0.737724 16.991 0.737724 16.5419 1.18683L16.754 1.39896C17.086 1.06701 17.6242 1.06701 17.9561 1.39896L18.1682 1.18683ZM18.1682 2.81317C18.6173 2.36407 18.6173 1.63593 18.1682 1.18683L17.9561 1.39896C18.2881 1.7309 18.2881 2.2691 17.9561 2.60104L18.1682 2.81317ZM11.1979 9.78355L18.1682 2.81317L17.9561 2.60104L10.9857 9.57142L11.1979 9.78355ZM10.9857 9.78355L17.9562 16.754L18.1683 16.5419L11.1979 9.57142L10.9857 9.78355ZM17.9562 16.754C18.2881 17.086 18.2881 17.6242 17.9562 17.9561L18.1683 18.1682C18.6174 17.7191 18.6174 16.991 18.1683 16.5419L17.9562 16.754ZM17.9562 17.9561C17.6243 18.2881 17.0861 18.2881 16.7541 17.9561L16.542 18.1682C16.9911 18.6173 17.7192 18.6173 18.1683 18.1682L17.9562 17.9561ZM16.7541 17.9561L9.78364 10.9856L9.57151 11.1978L16.542 18.1682L16.7541 17.9561ZM2.81317 18.1682L9.78364 11.1978L9.57151 10.9856L2.60104 17.9561L2.81317 18.1682ZM1.18683 18.1682C1.63593 18.6173 2.36407 18.6173 2.81317 18.1682L2.60104 17.9561C2.26909 18.2881 1.73091 18.2881 1.39896 17.9561L1.18683 18.1682ZM1.18683 16.5419C0.737724 16.991 0.737725 17.7191 1.18683 18.1682L1.39896 17.9561C1.06701 17.6242 1.06701 17.086 1.39896 16.754L1.18683 16.5419ZM8.1573 9.57142L1.18683 16.5419L1.39896 16.754L8.36943 9.78355L8.1573 9.57142ZM8.36943 9.57142L1.39905 2.60104L1.18692 2.81317L8.1573 9.78355L8.36943 9.57142ZM1.39905 2.60104C1.0671 2.2691 1.0671 1.7309 1.39905 1.39896L1.18692 1.18683C0.737815 1.63593 0.737815 2.36407 1.18692 2.81317L1.39905 2.60104ZM1.39905 1.39896C1.731 1.06701 2.26919 1.06701 2.60113 1.39896L2.81326 1.18683C2.36416 0.737724 1.63602 0.737724 1.18692 1.18683L1.39905 1.39896ZM2.60113 1.39896L9.57151 8.36934L9.78364 8.15721L2.81326 1.18683L2.60113 1.39896ZM16.5419 1.18683L9.57151 8.15721L9.78364 8.36934L16.754 1.39896L16.5419 1.18683Z" fill="#0C0C0D"/>
</svg>
