<svg width="95" height="19" viewBox="0 0 95 19" fill="none" xmlns="http://www.w3.org/2000/svg">
<path d="M0.398438 7.89844C0.65625 7.67188 0.980469 7.39453 1.37109 7.06641C1.76953 6.73047 2.20312 6.43359 2.67188 6.17578C3.14062 5.91797 3.60938 5.78906 4.07812 5.78906C4.24219 5.78906 4.40234 5.83594 4.55859 5.92969C4.71484 6.02344 4.84375 6.20703 4.94531 6.48047C4.95312 6.50391 5.03906 6.74609 5.20312 7.20703C5.36719 7.66797 5.57422 8.25781 5.82422 8.97656C6.08203 9.6875 6.35547 10.4453 6.64453 11.25C6.94141 12.0469 7.22266 12.8047 7.48828 13.5234C7.76172 14.2344 7.99219 14.8242 8.17969 15.293C8.375 15.7617 8.49609 16.0156 8.54297 16.0547C8.56641 16.0156 8.63672 15.8242 8.75391 15.4805C8.87891 15.1367 9.03125 14.7031 9.21094 14.1797C9.39062 13.6484 9.57422 13.0781 9.76172 12.4688C9.95703 11.8594 10.1367 11.2578 10.3008 10.6641C10.4727 10.0703 10.6055 9.54688 10.6992 9.09375L9.73828 6.71484C9.91016 6.55859 10.1914 6.36719 10.582 6.14062C10.9727 5.90625 11.3477 5.78906 11.707 5.78906C11.8867 5.78906 12.0547 5.83594 12.2109 5.92969C12.3672 6.02344 12.4961 6.19141 12.5977 6.43359C12.5977 6.43359 12.6719 6.66016 12.8203 7.11328C12.9766 7.56641 13.1758 8.15234 13.418 8.87109C13.668 9.58984 13.9336 10.3555 14.2148 11.168C14.4961 11.9727 14.7656 12.7422 15.0234 13.4766C15.2891 14.2031 15.5156 14.8047 15.7031 15.2812C15.8906 15.7578 16.0078 16.0156 16.0547 16.0547C16.2656 15.6172 16.4844 15.0977 16.7109 14.4961C16.9453 13.8945 17.1641 13.2617 17.3672 12.5977C17.5703 11.9258 17.7344 11.2695 17.8594 10.6289C17.9844 9.98047 18.0469 9.39844 18.0469 8.88281C18.0469 8.36719 17.9883 7.9375 17.8711 7.59375C17.7539 7.25 17.6367 6.96484 17.5195 6.73828L18.668 6.16406C18.8164 6.09375 19 6.01562 19.2188 5.92969C19.4453 5.83594 19.6289 5.78906 19.7695 5.78906C20.0664 5.78906 20.2578 5.92969 20.3438 6.21094C20.4297 6.48438 20.4727 6.74219 20.4727 6.98438C20.4727 7.46875 20.3828 8.07031 20.2031 8.78906C20.0234 9.5 19.7812 10.2734 19.4766 11.1094C19.1797 11.9453 18.8477 12.7891 18.4805 13.6406C18.1133 14.4844 17.7422 15.2891 17.3672 16.0547C16.9922 16.8125 16.6406 17.4688 16.3125 18.0234H15.0938C14.8281 18.0234 14.5742 17.9492 14.332 17.8008C14.0977 17.6523 13.918 17.4297 13.793 17.1328L11.6133 11.3555C11.457 11.8242 11.2656 12.3633 11.0391 12.9727C10.8203 13.5742 10.5781 14.1914 10.3125 14.8242C10.0547 15.4492 9.79297 16.043 9.52734 16.6055C9.26953 17.168 9.02734 17.6406 8.80078 18.0234H7.58203C7.31641 18.0234 7.0625 17.9492 6.82031 17.8008C6.57812 17.6523 6.39062 17.4297 6.25781 17.1328L2.56641 7.89844L0.832031 8.66016L0.398438 7.89844ZM35.9062 12.0234C35.9062 13.2969 35.6172 14.4102 35.0391 15.3633C34.4688 16.3086 33.6992 17.0469 32.7305 17.5781C31.7617 18.1016 30.6797 18.3633 29.4844 18.3633C28.2812 18.3633 27.1914 18.0977 26.2148 17.5664C25.2383 17.0352 24.4609 16.2969 23.8828 15.3516C23.3125 14.3984 23.0273 13.2891 23.0273 12.0234C23.0273 10.7422 23.3125 9.625 23.8828 8.67188C24.4609 7.71094 25.2383 6.96484 26.2148 6.43359C27.1914 5.90234 28.2812 5.63672 29.4844 5.63672C30.6875 5.63672 31.7734 5.90234 32.7422 6.43359C33.7109 6.96484 34.4805 7.71094 35.0508 8.67188C35.6211 9.625 35.9062 10.7422 35.9062 12.0234ZM25.9219 12C25.9219 12.8828 26.0195 13.7148 26.2148 14.4961C26.4102 15.2773 26.7656 15.9102 27.2812 16.3945C27.7969 16.8711 28.5312 17.1094 29.4844 17.1094C30.4375 17.1094 31.168 16.8711 31.6758 16.3945C32.1836 15.9102 32.5312 15.2773 32.7188 14.4961C32.9141 13.7148 33.0117 12.8828 33.0117 12C33.0117 11.1094 32.9141 10.2773 32.7188 9.50391C32.5312 8.72266 32.1836 8.09375 31.6758 7.61719C31.168 7.13281 30.4375 6.89062 29.4844 6.89062C28.5312 6.89062 27.7969 7.13281 27.2812 7.61719C26.7656 8.09375 26.4102 8.72266 26.2148 9.50391C26.0195 10.2773 25.9219 11.1094 25.9219 12ZM51.5391 12.0234C51.5391 13.2969 51.25 14.4102 50.6719 15.3633C50.1016 16.3086 49.332 17.0469 48.3633 17.5781C47.3945 18.1016 46.3125 18.3633 45.1172 18.3633C43.9141 18.3633 42.8242 18.0977 41.8477 17.5664C40.8711 17.0352 40.0938 16.2969 39.5156 15.3516C38.9453 14.3984 38.6602 13.2891 38.6602 12.0234C38.6602 10.7422 38.9453 9.625 39.5156 8.67188C40.0938 7.71094 40.8711 6.96484 41.8477 6.43359C42.8242 5.90234 43.9141 5.63672 45.1172 5.63672C46.3203 5.63672 47.4062 5.90234 48.375 6.43359C49.3438 6.96484 50.1133 7.71094 50.6836 8.67188C51.2539 9.625 51.5391 10.7422 51.5391 12.0234ZM41.5547 12C41.5547 12.8828 41.6523 13.7148 41.8477 14.4961C42.043 15.2773 42.3984 15.9102 42.9141 16.3945C43.4297 16.8711 44.1641 17.1094 45.1172 17.1094C46.0703 17.1094 46.8008 16.8711 47.3086 16.3945C47.8164 15.9102 48.1641 15.2773 48.3516 14.4961C48.5469 13.7148 48.6445 12.8828 48.6445 12C48.6445 11.1094 48.5469 10.2773 48.3516 9.50391C48.1641 8.72266 47.8164 8.09375 47.3086 7.61719C46.8008 7.13281 46.0703 6.89062 45.1172 6.89062C44.1641 6.89062 43.4297 7.13281 42.9141 7.61719C42.3984 8.09375 42.043 8.72266 41.8477 9.50391C41.6523 10.2773 41.5547 11.1094 41.5547 12ZM58.0781 16.8281H60.1172V17.707C59.8516 17.8555 59.4141 17.9766 58.8047 18.0703C58.1953 18.1641 57.6094 18.2109 57.0469 18.2109C56.5703 18.2109 56.1719 18.1406 55.8516 18C55.5312 17.8672 55.3711 17.5625 55.3711 17.0859V1.37109H53.2969V0.480469C53.5156 0.378906 53.8438 0.292969 54.2812 0.222656C54.7266 0.152344 55.1992 0.0976562 55.6992 0.0585938C56.207 0.0195313 56.6641 0 57.0703 0C57.3906 0 57.6367 0.0273437 57.8086 0.0820312C57.9883 0.128906 58.0781 0.308594 58.0781 0.621094V16.8281ZM63.4688 1.92188C63.4688 1.47656 63.6289 1.10156 63.9492 0.796875C64.2773 0.492188 64.668 0.339844 65.1211 0.339844C65.582 0.339844 65.9727 0.492188 66.293 0.796875C66.6133 1.10156 66.7734 1.47656 66.7734 1.92188C66.7734 2.35156 66.6133 2.71875 66.293 3.02344C65.9727 3.32812 65.582 3.48047 65.1211 3.48047C64.668 3.48047 64.2773 3.32812 63.9492 3.02344C63.6289 2.71875 63.4688 2.35156 63.4688 1.92188ZM66.4688 16.8281H68.5078V17.707C68.2422 17.8555 67.8047 17.9766 67.1953 18.0703C66.5859 18.1641 66 18.2109 65.4375 18.2109C64.9609 18.2109 64.5586 18.1406 64.2305 18C63.9102 17.8672 63.75 17.5625 63.75 17.0859V7.14844H61.6875V6.26953C61.9062 6.16797 62.2344 6.08203 62.6719 6.01172C63.1094 5.94141 63.582 5.88672 64.0898 5.84766C64.5977 5.80859 65.0547 5.78906 65.4609 5.78906C65.7812 5.78906 66.0273 5.81641 66.1992 5.87109C66.3789 5.91797 66.4688 6.09766 66.4688 6.41016V16.8281ZM70.6641 12C70.6641 10.7578 70.9258 9.66016 71.4492 8.70703C71.9805 7.74609 72.7383 6.99609 73.7227 6.45703C74.7148 5.91016 75.9023 5.63672 77.2852 5.63672C78.3242 5.63672 79.2148 5.85156 79.957 6.28125C80.707 6.71094 81.2812 7.27344 81.6797 7.96875C82.0781 8.66406 82.2773 9.41406 82.2773 10.2188C82.2773 10.5859 82.2305 10.9531 82.1367 11.3203C82.043 11.6875 81.8633 11.9922 81.5977 12.2344C81.3398 12.4766 80.9492 12.5977 80.4258 12.5977H73.418C73.5742 14.0039 74.1289 15.082 75.082 15.832C76.0352 16.5742 77.1992 16.9453 78.5742 16.9453C79.5352 16.9453 80.5352 16.7773 81.5742 16.4414L81.9609 17.2266C81.3281 17.6562 80.6055 17.9688 79.793 18.1641C78.9805 18.3594 78.1836 18.457 77.4023 18.457C76.543 18.457 75.7109 18.3203 74.9062 18.0469C74.1016 17.7812 73.3789 17.3789 72.7383 16.8398C72.1055 16.3008 71.6016 15.6289 71.2266 14.8242C70.8516 14.0195 70.6641 13.0781 70.6641 12ZM79.4648 11.1562C79.5117 11 79.543 10.8438 79.5586 10.6875C79.5742 10.5312 79.582 10.3672 79.582 10.1953C79.582 9.67969 79.4688 9.17188 79.2422 8.67188C79.0234 8.17188 78.6953 7.75781 78.2578 7.42969C77.8281 7.10156 77.2969 6.9375 76.6641 6.9375C75.8672 6.9375 75.2344 7.13672 74.7656 7.53516C74.3047 7.92578 73.9688 8.44141 73.7578 9.08203C73.5547 9.72266 73.4336 10.4141 73.3945 11.1562H79.4648ZM85.8867 15.1641C86.168 15.3672 86.5234 15.6211 86.9531 15.9258C87.3906 16.2305 87.8711 16.5 88.3945 16.7344C88.9258 16.9688 89.4648 17.0859 90.0117 17.0859C90.5273 17.0859 90.9883 16.9375 91.3945 16.6406C91.8008 16.3359 92.0039 15.9102 92.0039 15.3633C92.0039 14.9336 91.832 14.5742 91.4883 14.2852C91.1445 13.9883 90.7422 13.7383 90.2812 13.5352C89.8203 13.3242 89.4102 13.1406 89.0508 12.9844C88.4414 12.7109 87.8398 12.418 87.2461 12.1055C86.6602 11.793 86.1719 11.3945 85.7812 10.9102C85.3984 10.418 85.207 9.77344 85.207 8.97656C85.207 8.17188 85.4609 7.52734 85.9688 7.04297C86.4844 6.55078 87.125 6.19531 87.8906 5.97656C88.6562 5.75 89.4258 5.63672 90.1992 5.63672C90.6836 5.63672 91.1914 5.66797 91.7227 5.73047C92.2539 5.78516 92.7031 5.87891 93.0703 6.01172C93.4453 6.14453 93.6328 6.32422 93.6328 6.55078C93.6328 6.60547 93.6094 6.6875 93.5625 6.79688L92.7656 8.33203C92.5703 8.19922 92.2812 8.03125 91.8984 7.82812C91.5234 7.61719 91.0977 7.42969 90.6211 7.26562C90.1523 7.09375 89.668 7.00781 89.168 7.00781C88.6289 7.00781 88.1875 7.13281 87.8438 7.38281C87.5 7.63281 87.3281 7.98828 87.3281 8.44922C87.3281 8.92578 87.5 9.32422 87.8438 9.64453C88.1875 9.96484 88.6289 10.2461 89.168 10.4883C89.707 10.7227 90.2773 10.9531 90.8789 11.1797C91.4805 11.4062 92.0508 11.668 92.5898 11.9648C93.1289 12.2539 93.5703 12.6133 93.9141 13.043C94.2578 13.4727 94.4297 14.0117 94.4297 14.6602C94.4297 15.3477 94.2812 15.9297 93.9844 16.4062C93.6953 16.875 93.3086 17.2539 92.8242 17.543C92.3477 17.832 91.8203 18.0391 91.2422 18.1641C90.6641 18.2969 90.0938 18.3633 89.5312 18.3633C89.0469 18.3633 88.5352 18.3086 87.9961 18.1992C87.457 18.0977 86.9492 17.9648 86.4727 17.8008C86.0039 17.6367 85.6211 17.4648 85.3242 17.2852C85.0273 17.0977 84.8789 16.9219 84.8789 16.7578C84.8789 16.6562 84.9023 16.5586 84.9492 16.4648L85.8867 15.1641Z" fill="white"/>
</svg>
