<svg width="32" height="32" viewBox="0 0 32 32" fill="none" xmlns="http://www.w3.org/2000/svg">
<path d="M20.2195 8.06474L20.2228 8.21139H20.3695H21.7858C22.8461 8.21139 23.6284 8.48607 24.1462 8.99913C24.6637 9.51196 24.9405 10.2864 24.9405 11.3359V21.7321C24.9405 22.7821 24.6659 23.5585 24.177 24.0721C23.6891 24.5845 22.9672 24.8567 22.0269 24.8567H10.2144C9.15403 24.8567 8.37172 24.582 7.85398 24.069C7.33647 23.5561 7.05967 22.7817 7.05967 21.7321V11.3359C7.05967 10.2864 7.33647 9.51196 7.85398 8.99913C8.37172 8.48607 9.15403 8.21139 10.2144 8.21139H11.6307H11.7773L11.7806 8.06474C11.8289 5.90019 13.687 4.09308 16.0001 4.09308C18.323 4.09308 20.1712 5.89997 20.2195 8.06474ZM18.4309 8.21139H18.5856L18.5808 8.05678C18.5382 6.67138 17.4586 5.57099 16.0001 5.57099C14.5415 5.57099 13.462 6.67138 13.4193 8.05678L13.4146 8.21139H13.5693H18.4309ZM8.75855 21.5513C8.75855 22.0636 8.8935 22.4718 9.17441 22.7513C9.45517 23.0306 9.85817 23.1578 10.3449 23.1578H21.8963C22.2702 23.1578 22.6119 23.0228 22.8586 22.7444C23.1038 22.4676 23.2416 22.0645 23.2416 21.5513V11.5167C23.2416 11.0084 23.1035 10.6028 22.8214 10.325C22.5398 10.0477 22.1373 9.92032 21.6552 9.92032H10.3449C9.85818 9.92032 9.45537 10.0475 9.17469 10.3253C8.89372 10.6034 8.75855 11.0091 8.75855 11.5167V21.5513Z" fill="white" stroke="#0C0C0D" stroke-width="0.3"/>
</svg>
