<svg width="41" height="41" viewBox="0 0 41 41" fill="none" xmlns="http://www.w3.org/2000/svg">
<circle cx="20.5" cy="20.5" r="20.5" fill="#0C0C0D"/>
<path d="M9.39844 17.8984C9.65625 17.6719 9.98047 17.3945 10.3711 17.0664C10.7695 16.7305 11.2031 16.4336 11.6719 16.1758C12.1406 15.918 12.6094 15.7891 13.0781 15.7891C13.2422 15.7891 13.4023 15.8359 13.5586 15.9297C13.7148 16.0234 13.8438 16.207 13.9453 16.4805C13.9531 16.5039 14.0391 16.7461 14.2031 17.207C14.3672 17.668 14.5742 18.2578 14.8242 18.9766C15.082 19.6875 15.3555 20.4453 15.6445 21.25C15.9414 22.0469 16.2227 22.8047 16.4883 23.5234C16.7617 24.2344 16.9922 24.8242 17.1797 25.293C17.375 25.7617 17.4961 26.0156 17.543 26.0547C17.5664 26.0156 17.6367 25.8242 17.7539 25.4805C17.8789 25.1367 18.0312 24.7031 18.2109 24.1797C18.3906 23.6484 18.5742 23.0781 18.7617 22.4688C18.957 21.8594 19.1367 21.2578 19.3008 20.6641C19.4727 20.0703 19.6055 19.5469 19.6992 19.0938L18.7383 16.7148C18.9102 16.5586 19.1914 16.3672 19.582 16.1406C19.9727 15.9062 20.3477 15.7891 20.707 15.7891C20.8867 15.7891 21.0547 15.8359 21.2109 15.9297C21.3672 16.0234 21.4961 16.1914 21.5977 16.4336C21.5977 16.4336 21.6719 16.6602 21.8203 17.1133C21.9766 17.5664 22.1758 18.1523 22.418 18.8711C22.668 19.5898 22.9336 20.3555 23.2148 21.168C23.4961 21.9727 23.7656 22.7422 24.0234 23.4766C24.2891 24.2031 24.5156 24.8047 24.7031 25.2812C24.8906 25.7578 25.0078 26.0156 25.0547 26.0547C25.2656 25.6172 25.4844 25.0977 25.7109 24.4961C25.9453 23.8945 26.1641 23.2617 26.3672 22.5977C26.5703 21.9258 26.7344 21.2695 26.8594 20.6289C26.9844 19.9805 27.0469 19.3984 27.0469 18.8828C27.0469 18.3672 26.9883 17.9375 26.8711 17.5938C26.7539 17.25 26.6367 16.9648 26.5195 16.7383L27.668 16.1641C27.8164 16.0938 28 16.0156 28.2188 15.9297C28.4453 15.8359 28.6289 15.7891 28.7695 15.7891C29.0664 15.7891 29.2578 15.9297 29.3438 16.2109C29.4297 16.4844 29.4727 16.7422 29.4727 16.9844C29.4727 17.4688 29.3828 18.0703 29.2031 18.7891C29.0234 19.5 28.7812 20.2734 28.4766 21.1094C28.1797 21.9453 27.8477 22.7891 27.4805 23.6406C27.1133 24.4844 26.7422 25.2891 26.3672 26.0547C25.9922 26.8125 25.6406 27.4688 25.3125 28.0234H24.0938C23.8281 28.0234 23.5742 27.9492 23.332 27.8008C23.0977 27.6523 22.918 27.4297 22.793 27.1328L20.6133 21.3555C20.457 21.8242 20.2656 22.3633 20.0391 22.9727C19.8203 23.5742 19.5781 24.1914 19.3125 24.8242C19.0547 25.4492 18.793 26.043 18.5273 26.6055C18.2695 27.168 18.0273 27.6406 17.8008 28.0234H16.582C16.3164 28.0234 16.0625 27.9492 15.8203 27.8008C15.5781 27.6523 15.3906 27.4297 15.2578 27.1328L11.5664 17.8984L9.83203 18.6602L9.39844 17.8984Z" fill="white"/>
</svg>
