<svg width="32" height="32" viewBox="0 0 32 32" fill="none" xmlns="http://www.w3.org/2000/svg">
<path d="M18.7681 20.3405L18.6815 20.2537L18.5792 20.3213C17.3573 21.1293 15.8892 21.6022 14.3226 21.6022C10.0561 21.6022 6.56748 18.1136 6.56748 13.8471C6.56748 9.58074 10.066 6.09197 14.3226 6.09197C18.5891 6.09197 22.0777 9.58062 22.0777 13.8471C22.0777 15.5024 21.5557 17.0294 20.6687 18.291L20.5963 18.3939L20.6851 18.4831L25.0545 22.8726L25.0547 22.8728C25.3042 23.1223 25.4226 23.454 25.4226 23.8013C25.4226 24.547 24.8723 25.1279 24.1262 25.1279C23.7614 25.1279 23.4282 25.0011 23.1667 24.7491C23.1663 24.7488 23.166 24.7485 23.1656 24.7481L18.7681 20.3405ZM8.37686 13.8471C8.37686 17.1141 11.0556 19.7929 14.3226 19.7929C17.5896 19.7929 20.2684 17.1141 20.2684 13.8471C20.2684 10.5801 17.5896 7.90135 14.3226 7.90135C11.0556 7.90135 8.37686 10.5801 8.37686 13.8471Z" fill="white" stroke="#0C0C0D" stroke-width="0.3"/>
</svg>
