<svg width="31" height="33" viewBox="0 0 31 33" fill="none" xmlns="http://www.w3.org/2000/svg">
<g clip-path="url(#clip0_412_33)">
<path d="M14.0938 13.5938L12.9375 4.40625H16.1562C17.6771 4.40625 18.3542 5.08333 18.1875 6.4375L17.1562 13.6875L24.5312 7.84375L26.1875 10.5938C26.5 11.1146 26.6562 11.5417 26.6562 11.875C26.6562 12.6042 26.2708 13.1146 25.5 13.4062L18.5938 16.0938L27.1562 21.3438L25.0938 23.9688C24.6562 24.5729 24.1875 24.875 23.6875 24.875C23.1667 24.875 22.6979 24.6354 22.2812 24.1562L17.0312 18.7188L18.25 28.4688H15.0625C13.6875 28.4688 13 27.9271 13 26.8438C13 26.5521 13.0521 25.9792 13.1562 25.125C13.2812 24.25 13.4062 23.3229 13.5312 22.3438C13.6771 21.3438 13.8021 20.4792 13.9062 19.75C14.0312 19.0208 14.0938 18.6562 14.0938 18.6562L6.8125 24.9375L5.0625 22.1875C4.91667 21.9375 4.78125 21.6979 4.65625 21.4688C4.55208 21.2396 4.5 21.0312 4.5 20.8438C4.5 20.5729 4.58333 20.3125 4.75 20.0625C4.9375 19.7917 5.26042 19.5625 5.71875 19.375L12.8125 16.1562L4.0625 12.5312L5.65625 9.71875C6.07292 8.98958 6.5625 8.625 7.125 8.625C7.3125 8.625 7.53125 8.65625 7.78125 8.71875C8.03125 8.76042 8.26042 8.875 8.46875 9.0625L14.0938 13.5938Z" fill="black"/>
</g>
<defs>
<clipPath id="clip0_412_33">
<rect width="31" height="33" fill="white"/>
</clipPath>
</defs>
</svg>
